<svg xmlns="http://www.w3.org/2000/svg" height="800" width="1200" viewBox="-28.06275 -27.10075 243.2105 162.6045"><path fill="#F37021" clip-rule="evenodd" fill-rule="evenodd" d="M11.246 58.003H7.77v6.85h12.677v-6.85h-3.578v-4.089h11.45v4.09h-3.681v20.14h3.681v3.986h-11.45v-3.986h3.578V68.84H7.77v9.305h3.476v3.986H0v-3.986h3.579v-20.14H0v-4.09h11.246zm146.398 3.784h-3.886v-3.784h-11.245v6.748h9.611v3.987h-9.611v9.406h11.144v-5.42h4.089v9.406h-23.207v-3.986h3.783v-20.14h-3.783v-4.09h23.105zm-100.904 0h-3.988v-3.784H41.507v6.748h9.61v3.987h-9.61v9.406H52.65v-5.42h4.09v9.406H33.533v-3.986h3.782v-20.14h-3.782v-4.09H56.74zm94.872-9.202h-8.076l-2.249-2.454h8.28zm28.727 13.393c-2.862-.717-4.805-.613-7.77-1.533-2.556-.922-3.067-2.455-3.067-3.477 0-1.125 1.125-3.885 5.214-3.885 4.09 0 6.85 2.76 6.952 5.111h3.987v-8.28h-3.885v1.838l.204.512v.102-.102c-.102 0-.204-.307-.613-.613v-.102c-1.125-1.023-3.476-2.25-6.952-2.25-4.191 0-9.099 2.658-9.099 7.667 0 4.906 3.477 6.543 6.543 7.361 2.965.816 4.498.816 7.055 1.533 2.453.613 4.089 2.146 4.089 4.396 0 2.043-1.329 4.805-6.646 4.805-5.214 0-7.36-2.863-7.974-6.85h-3.783v9.916h3.886v-1.84l-.103-.512s.103.307.613.613v.102c1.942 1.535 4.601 2.557 7.872 2.557 3.782 0 10.223-1.94 10.223-8.689.001-4.905-2.554-7.153-6.746-8.38zm-51.116-7.975v-4.089H119l-6.85 16.562-.102.818-.205-.818-6.747-16.562H94.77v4.09h3.783v20.14H94.77v3.986h11.553v-3.986h-3.578V58.412l.306.92 7.872 18.812h2.249l7.872-18.812.205-1.022.102 1.125v18.71h-3.578v3.985h11.45v-3.986h-3.783v-20.14zM43.041 43.077h-3.885v-1.022h2.863c.101.205.715.715 1.022 1.022zm97.632 0c0-.409.408-.817.92-1.022h2.045v1.022zm-64.202.716c-1.738.818-3.885.715-5.623 0H50.503a7.973 7.973 0 01-6.134 0h-5.214v1.942h104.483v-1.942zm-24.741-.716c.307-.204 1.022-.92 1.125-1.022h15.744c.205.307.716.818 1.022 1.022zm21.98-.613c2.658 0 4.907-2.249 4.907-4.907 0-2.76-2.249-5.009-4.907-5.009a5.017 5.017 0 00-5.009 5.01c0 2.657 2.249 4.906 5.009 4.906v1.022c-3.374 0-6.032-2.658-6.032-5.93 0-3.374 2.658-6.032 6.032-6.032 3.271 0 5.929 2.658 5.929 6.032a5.934 5.934 0 01-5.929 5.93zM54.184 36.74c0-3.68-3.067-6.749-6.748-6.749-3.783 0-6.748 3.067-6.748 6.748 0 3.783 2.965 6.748 6.748 6.748 3.681 0 6.748-2.966 6.748-6.748h-1.125c0 3.17-2.556 5.725-5.623 5.725a5.716 5.716 0 01-5.725-5.725c0-3.169 2.556-5.623 5.725-5.623a5.607 5.607 0 015.623 5.623z"/><path d="M76.879 40.93l-2.044-2.35v-.104c.102-.102.102-.204.204-.307l3.067.818c.102 0 .307.102.307.204 0-.103.103-.51.205-.716-.102.103-.307.103-.511.103l-2.863-.818c-.102 0-.102-.103-.102-.103v-.511l2.965-1.125s.307 0 .307.102c0-.102-.205-.614-.205-.716 0 .102-.205.307-.307.307l.205-.103-3.067 1.125c0 .103 0 0-.102 0a.22.22 0 00-.205-.205c0-.102-.102-.204 0-.204l1.636-2.556c.102-.102.307-.204.409-.204-.102 0-.511-.307-.716-.409.103 0 .103.307 0 .41l-1.636 2.555h-.204s-.205-.102-.307-.102c0 0-.102 0-.102-.103l-.102-2.965c0-.204 0-.409.204-.409h-.817c.102 0 .204.307.204.41l.103 2.964c0 .103-.103.103-.103.103s-.204.102-.307.204c0 0-.102 0-.102-.102l-1.942-2.352c-.103-.102-.103-.307-.103-.409-.102.102-.511.41-.613.511.102 0 .307.102.409.204l1.943 2.352v.102c-.103 0-.205.205-.205.307 0 0-.102.102-.205.102l-2.862-.818c-.205-.102-.307-.205-.307-.307 0 .102-.205.613-.205.715 0 0 .307-.102.409 0l2.863.716c.102 0 .102.102.102.102v.512l-2.862 1.226c-.103 0-.307.103-.307 0 0 .103.102.512.204.716 0-.102.205-.307.307-.307l2.76-1.227c.102 0 .102.102.102.102a.22.22 0 01.205.205c.102 0 .102.102.102.102l-1.738 2.556c-.103.102-.205.204-.307.204.103.103.511.41.614.41-.103 0 0-.308 0-.41l1.738-2.453c0-.103.103-.103.103-.103.102.103.204.103.307.103.102 0 .102 0 .102.102l.205 3.067c0 .103-.103.307-.205.307h.818c-.205 0-.205-.204-.205-.409l-.205-2.965c0-.102.103-.102.103-.102.102 0 .307-.103.409-.205 0 0 .103 0 .103.103l2.044 2.25c0 .102.103.306.103.408l.511-.51c-.104.105-.309-.1-.309-.1zm-29.647-8.076c2.862 0 5.725.307 7.361.818.204 0 .204.205 0 .307-1.738.41-4.601.716-7.258.716-2.658.102-5.521 0-7.361-.409-.204 0-.204-.205 0-.205 1.635-.614 4.396-1.125 7.258-1.227v-.51c-3.067.102-6.134.817-8.69 1.737-.307.103-.307.307 0 .307 2.863.716 5.828.818 8.792.716 2.862-.102 5.929-.307 8.689-1.125.409-.102.307-.307.102-.307a30.61 30.61 0 00-8.894-1.329v.511z" fill="#F37021" clip-rule="evenodd" fill-rule="evenodd"/><path d="M77.595 31.014c-.716.205-1.942.614-2.556.614-.511 0-3.066-.103-4.805 0-2.352.102-2.556.41-2.658.204-.511-.818-.92-2.044-1.738-2.76-4.805.818-9.508.103-13.801-1.43v-.614c.307.102.511.102.715.102-.715-1.022-1.942-1.329-2.658-2.454-.409-.307-.511-.92-.92-1.227.102 1.125-.818 1.942-.92 2.862.613.205 1.431.205 1.738.102.409-.102.92 0 1.125.307.307.103.511.307.92.307v.613c-.512-.103-.614-.205-1.022-.409-.511.205-.92.103-1.125-.102-.103-.102-1.125-.102-1.534-.102-1.329 0-2.76.511-3.476 1.636-.307.613-.204 1.33.103 1.84.205.307 1.125 1.636 1.738 2.045l-.818.205c-1.227-1.125-2.146-2.147-1.942-3.476.613-2.863 3.271-2.454 3.987-3.68.511-1.125.715-4.396.102-5.316-1.738-.716-3.885-1.636-4.293-3.68-.103-.512.102-1.125.613-1.228.92-.205 1.533.307 2.249.613.307-.204-.307-.92.409-.92.92 0 1.533 1.84 1.84 1.942l-.102.716c-.614-.205-2.863-1.432-3.067-1.534-.409-.205-.92-.51-1.227-.102-.409.511.102 1.125.409 1.636 4.805 5.01 12.779-.307 17.993 3.271.103-.307 0-.409-.205-.51-3.578-3.375-9.303-1.637-13.903-2.76l.102-.717c5.725 1.431 13.291-.92 16.255 5.623 1.942 2.76 3.987 7.156 8.178 7.258 3.374.102 5.623-1.227 7.259-3.68 2.249-4.089 3.578-8.792 7.565-11.552.409-.205.614 0 .409.102-1.942 1.942-3.681 4.498-4.601 6.645 1.534 5.827 4.907 4.601 5.725 4.5-.205-2.148 0-8.487 4.601-10.02a9.334 9.334 0 019.508-1.125c-3.578 3.374-5.726 8.18-6.441 11.552l-3.986 1.125c.307-.613.307-1.636.204-2.76-.409.205-.818.511-1.738 1.022-.409.103-.103-.51-.103-.51 0-.206 1.022-.614 1.84-1.126-.307-2.352-.511-5.418 1.432-7.36-3.987 1.328-2.863 9.711-2.454 10.733-1.125.511-2.658.511-2.658.511l-.204-1.43c-1.738.612-4.703.203-6.032-4.397-1.431 2.965-2.658 7.668-6.032 8.895zm62.363-12.473c-.205-.205-.307-.307-.512-.307-.102-.103 0-.205.103-.205.103-.102.307 0 .409.205.101.103.101.307 0 .307z" fill="#F37021" clip-rule="evenodd" fill-rule="evenodd"/><path d="M48.459 38.272l2.147 2.454c.204.204.204.511.102.613.307-.102.715-.613.92-.818-.103.102-.511.102-.613-.102l-2.249-2.454v-.205l.102-.103c0-.102.102-.102.102-.102l3.169 1.125c.307.205.409.41.409.511.103-.204.307-.818.409-1.022-.102.103-.409.205-.613.103l-3.169-1.125c-.102 0-.102 0-.102-.103v-.204c0-.103.102-.103.102-.103l3.271-.51c.409-.103.613.102.613.204 0-.205-.102-.92-.102-1.125 0 .102-.205.41-.613.511l-3.169.511c-.102 0-.102-.103-.102-.103-.103-.102-.103-.204-.205-.307v-.099l2.556-2.147c.307-.205.614-.205.716-.102-.205-.205-.614-.716-.818-.92.102.103 0 .41-.205.716l-2.454 2.044c-.102.102-.102.102-.102 0-.102 0-.205 0-.307-.102 0 0-.103-.103 0-.103l1.125-3.169a.616.616 0 01.511-.409c-.205-.103-.92-.409-1.125-.409.102 0 .307.41.204.715L47.844 35c0 .102-.102.102-.102.102h-.307L47.333 35l-.614-3.27c0-.41.205-.614.205-.614-.205 0-.818.102-1.125.205.102 0 .409.204.511.511l.613 3.17c0 .101 0 .101-.103.203-.102 0-.204.103-.307.103h-.102l-2.249-2.454c-.205-.307-.205-.614-.102-.614-.205.103-.716.512-.818.716.103 0 .409 0 .613.205l2.25 2.454v.103l-.205.204h-.102l-3.067-1.125c-.307-.102-.511-.409-.409-.51-.205.306-.307.92-.409 1.124.102-.102.409-.205.715-.102l3.067 1.022v.512l-3.271.613c-.307 0-.613-.205-.613-.307 0 .307.103 1.022.205 1.227 0-.102.102-.409.511-.51l3.169-.615s.103 0 .103.102c0 .103 0 .103.102.205v.102l-2.556 2.045c-.307.307-.613.205-.613.102 0 .307.511.818.613.92 0-.103 0-.409.204-.614l2.658-2.044c0-.102 0-.102.103 0l.204.205c.103 0 .103 0 .103.102l-1.125 3.067c-.103.307-.409.511-.511.41.205.101.818.408 1.125.408-.205 0-.307-.307-.205-.614l1.125-3.169s0-.102.102-.102c.103.102.205.102.307.102 0 0 .102 0 .102.103l.613 3.17a.934.934 0 01-.307.715c.307 0 .92-.204 1.125-.307-.102.103-.409-.205-.409-.409l-.613-3.27v-.103c.102 0 .204-.102.307-.102.103-.105.103-.105.206-.003zm90.067-19.322c-.102-.102 0-.204 0-.307.103-.307.205-.307.205-.613-.512-.409-.614-1.227-.307-1.432.307-.307 1.328.103 1.328.103.921-.716 1.228-1.227 1.738-1.534.716 0 2.147 1.33 2.147 2.147-.205.307-.716.818-1.534 1.84.307.715.307 1.227-.204 1.636-.103 0-.307 0-.511-.205.102 1.022 1.227 1.636 1.635 2.454 0 1.636 1.738 3.68-.204 5.01-.409.204-.817.511-1.022.92.307 1.635.92 3.373 1.227 5.111l-1.942.103c-.204.613-.817 1.738-.613 2.351 0 0-.102-.102.103 0 .307.41.409 3.783.307 4.09 0 .408.307.408.103 1.124-.205.103-1.022.613-1.125.92-.511.511-1.942.613-1.942.41 0-.512 1.022-1.126 1.227-1.739.205-2.454 0-4.907-1.329-6.85-.511-.307-.92.511-1.227.92.512 1.534 1.432 3.17 1.329 4.907 0 .511.613 1.227.307 1.943l-1.636.817h-5.93c-.204-.307-.613-.613-.511-1.022h5.316c0-.204.511-.102 1.021-.92 0-2.454-2.556-6.032-2.146-7.258.512-1.534 1.228-2.76 2.045-4.805l.408-.103c-.92 3.067-2.249 4.601-2.044 5.521.103.511.307.92.613 1.534l.205.613c.102.307.408 1.022.612 1.227.307 0 .512-.205.716-.307 0-.409-.307-.92-.511-1.227l-.817.307-.205-.613c.613 0 1.022-.409.511-.716 1.432-.715-.306-.51.205-.818.817-.409 1.227-1.942 1.329-2.862 0-.205.102-.307.307-.307.613 1.635.613 3.782 1.636 5.316v.511c-.103.41 0 .92.204 1.227.92.102.818-.102.613-1.227-.204 0-.613-.103-.817 0v-.51c.102-.104.511 0 .613-.104-.307-.51-.307-.92-.307-1.43 0-.308.204-.92.408.408.308.103.818-2.35.921-3.169-1.942.41 0-1.84-1.432-1.942l.716-1.227c0-.409-.307-.716-.818-.51l-.408-.512c-.307-.102-.613-.614-1.022-.92-.307.307-.818.92-.92 1.33-.103.102.204.204.307.102.307-.307.511.306 1.022.204.204-.204.817-.307.613-.715l.408.511c-.408.204-.408.92-.408 1.431-.716 1.33-.409-.716-1.228-.716-.511.307-.715-.51-1.022-.409l-.408.103c0-.715.102-1.534 0-2.352.613-3.476 1.329-3.374 1.431-4.396 0-.409 1.534-1.227 1.432-1.636.103 0 .307.307.307.41-.103.51-1.124.51-1.022 1.635.613-1.125 2.352-1.022 2.454-2.352-.307-.818.409-.307.409-1.125-.205-.204-.818-.818-.921-1.125-.102-.102.307-.716-1.124-.716-.103.103-.205.716-.409 1.022-.103.103-.307.307-.204.41 0 .101.204.204.204.612-.103.41 0 .613.204.818.818.41 1.432 0 .512.511 0 .102 0 .204-.103.307 0-.103-.307-.51-.409-.613-.102 0-.613-.307-.511-.716.1-.407.1-.61-.105-.816zm-27.501-3.885c.103.716-.307 1.227-.307 1.942.716 1.738 0 3.067.205 4.703-.818-.51-1.022-1.84-1.329-3.27-.204-1.228.103-1.637.204-2.965zm-2.147.512c-.103 2.147-.409 3.17 1.125 6.543-3.885 1.636-7.055 2.76-11.655 4.09.512-3.272 3.681-9.509 6.339-11.247 2.249.614 4.191.614 4.191.614z" fill="#F37021" clip-rule="evenodd" fill-rule="evenodd"/><path d="M98.86 39.602c-1.022.307-1.022.92-.409 1.533.409.307.818.818.818.92h-6.543c0 .307.307.512.511 1.022h36.19c.204-.51-.408-1.125-.613-1.738-2.556-.92-2.556-3.27-2.658-5.93 0-.102-.204-.409-.204-.92-.307-.409-2.045-4.6-1.227-7.974l.613-1.125c.511-.716-.103-1.125.307-1.942l7.564-1.432c.103-.102.103-.409-.102-.51 0-.104.102 0 0 0l-7.36 1.328c.408-1.84-1.228-2.454-.512-3.987 1.022 1.125 3.783 3.067 5.214 3.374l.716-.102c-1.84-.818-5.111-2.76-6.952-5.316-.204 0-.409-.205-.613-.307 0 .205.511.818.409.92 0 0-1.227.818-3.477-.204-.715 1.431-8.689 5.01-8.689 5.01.307 2.248 1.329 3.68 2.453 4.906.103.205-.307-.205 0 0 1.637 1.33 3.579 1.942 5.726 2.352.409 1.227 1.942 5.214 2.045 5.827.204.613.511.613.511.613.205.205.92 1.534.92 2.045l.205 2.146c.102.511.715.103.817.614l-.307 1.33h1.534c-.818-.716-.308-1.943-1.33-2.454-.102-1.227-.204-2.147-.715-2.658-.409-1.227-1.738-4.498-2.557-7.463l.512-.716c-2.249.613-3.987-.205-6.031-1.329-1.534-.716-.614-.102-.103-.409 2.453 1.125 3.681.818 5.521.613.204.307.613.613.613 1.125l-.512.716c.512-.512.921-.205 1.228 1.227.409 1.227.817 2.147 1.124 3.17.409 1.021.716 2.35 1.022 3.066 0 0 .307 0 .512.41.716 2.25.92 2.555.817 3.577.205.818 1.329.103 1.227 1.125h-26.887c.408-1.635-.512-3.066 0-4.6-1.022-1.636-3.578-2.862-3.17-5.112 1.228-1.738 5.215-3.476 4.294-5.52 3.681-1.84 5.521 1.226 8.895.92 1.227 0 2.556-.206 3.681-.512-1.432-1.125-2.658-2.862-3.374-4.396-7.156 2.965-14.108 5.316-21.775 6.85l-.614-.204c-.715.102-12.37 2.76-11.961 3.271-4.396.307-9.508 2.147-10.632 2.76-.511.307-.614.512 0 .716 4.703 1.227 8.587.307 15.846-2.454l-.511-.409c-.409.307-6.338 2.352-8.69 2.658-2.454.307-4.601.204-5.623-.103-.307-.102-.307-.102-.103-.204 4.601-1.84 13.495-3.477 14.722-1.943.716.205 1.227.613 1.636 1.125.409.511 1.227.306 1.84.204.818-.204.92-.92.92-1.636l-.92-.102c-.409 0-2.045.205-2.249.41-.614-.512-1.227-1.023-2.045-1.228 1.636-.716 4.294-1.329 5.725-1.43-1.329.92-.715 2.043-1.431 2.248l.92.102c0-.409 0-.715.205-.92.92-2.249 4.805-2.556 6.747-3.067 0 0-1.022 1.33-1.738 1.636-.205 3.17-1.329 5.93-1.534 9.1.92 0 .92 1.021 1.125 1.635-.307.511-.716 0-1.125.102-1.431-.715.307-1.942-.818-2.964.614-2.556 1.534-5.112 1.534-7.77-.409 0-.511.41-.716.715-.307 2.556-1.022 4.908-1.635 7.26.204.204.715.408.715.817-.818.511 0 1.431-.307 2.044H78.72l-.92 1.022h14.108l.103-.51c-2.045-2.25-1.329-5.522-.307-7.975l2.454-3.27c2.045-.819 3.271-3.272 5.419-4.09 0 1.124-1.329 1.533-2.045 2.146-.818 1.738-3.169 1.943-3.477 3.885.921 1.022 2.25 1.738 3.374 2.658 1.125.716.818 2.25 1.636 2.965.204.205-.001.614-.205.717z" fill="#F37021" clip-rule="evenodd" fill-rule="evenodd"/><path d="M114.501 2.695c-.409.613-1.227 1.022-.716 2.147-1.022.613-.716 1.533-.409 2.044-.511.511-.817 1.534-.102 2.147-.818.92.204 1.738.511 2.045-.409.92 0 1.635 0 1.635-.103.614-1.227 1.636-1.636 1.943-.613 1.533-.409 4.703-.307 6.85 2.862-1.432 5.725-2.76 7.975-4.703-1.942-1.329-3.477-4.498-5.623-4.293-.205-2.25-1.125-6.236 2.045-10.326.408-.205 1.021-.307 1.328-.51-1.328-.206-3.066.612-4.293-.103.001 0 .614 1.022 1.227 1.124z" fill="#F37021" clip-rule="evenodd" fill-rule="evenodd"/><path d="M121.351 1.673c0 .102.409.307.409.307s.409-.102.409-.205c0-.102.102-.409 0-.51-.103 0-.409-.104-.614-.104 0 .001-.204.41-.204.512l-.205.205-1.431-1.022.204-.205s.613-.613.92-.613c.307-.102 1.943 0 2.352.307.307.307.512.511.92 1.227 1.125.818 2.965.818 4.09 1.738-.204.307.307.818-.103 1.022-.307.102-1.022-.103-1.124.102l-.103.613-.409-.102s.204-.716 0-.716c-.204-.102-.613-.307-.817-.205-.103.103 0 .205.103.41 0 .204.511.306.817.204l.409.102.511.103c-.204.511-.307.715-1.022.511-.204.511.92.92 1.022 1.125-.103.205-.307.41-1.022 0 0 0-2.965 2.863-4.702 3.681-1.841.818-.103-.409-.103-.409.818-.307 4.396-3.374 4.396-3.68-.103-.205-.307-.613-.307-.92-.512-.205-1.534.102-1.943.41.205.92 1.841 5.52.613 12.472l-.204-.205c1.125-6.747-.716-12.166-.716-12.166-1.021.41-1.737.102-2.249.204-.204 4.192 3.169 4.805 1.942 10.326-3.578-.613-6.134-5.009-8.179-4.6-.102-.716-.817-1.943-.102-2.352-.205-.613-.409-1.43.511-1.943-.307-.818-.409-1.533.512-2.146-.205-.51-.103-1.636 1.021-1.84.103-.92.512-1.636 1.329-1.942-.92-.409-1.124-1.329-1.124-1.329.817.511 1.533.818 2.76.613zM86.592 78.144l-.102-5.727c0-1.736-1.125-3.578-2.658-4.6-.307-.102-.818-.307-1.227-.307.409 0 .92 0 1.431-.205 1.534-.715 3.374-2.658 3.374-6.03 0-2.558-1.022-4.499-2.863-5.829-1.738-1.226-3.68-1.533-5.725-1.533H63.078v4.09h3.578v20.14h-3.578v3.986h11.246v-3.986h-3.578V69.25h7.77c2.658.102 3.68 1.84 3.68 3.271l.307 9.61h7.667v-3.987h-3.578zm-7.259-12.779h-8.587v-7.36h8.077c.919 0 1.942 0 2.76.306 1.022.512 1.943 1.635 1.943 3.373-.001 2.148-1.944 3.681-4.193 3.681zM61.646 92.15c3.681 0 5.316 2.045 5.316 4.6 0 2.557-1.738 4.498-5.623 4.498h-2.658v7.055h-2.352V92.15zm-2.964 7.053h2.862c1.738 0 2.965-.92 2.965-2.555 0-1.227-.716-2.453-2.863-2.453h-2.964zm26.581 9.099h-2.556l-2.044-4.805h-7.054l-1.942 4.805H69.11l7.156-16.256h1.636zm-10.735-6.95h5.213l-2.76-6.34zm35.27-9.202h2.352v16.152h-2.352zm19.221 3.474c-1.534-1.227-2.965-1.635-4.192-1.635-1.533 0-2.76.715-2.76 1.84 0 3.17 7.564 3.066 7.564 8.281 0 2.453-2.044 4.293-4.906 4.293-1.841 0-3.477-.408-4.907-1.432v-2.965c1.328 1.535 2.965 2.352 4.702 2.352 1.942 0 2.862-1.123 2.862-2.043 0-3.27-7.667-3.682-7.667-8.078 0-2.658 2.146-4.293 5.316-4.293 1.431 0 2.657.307 3.987 1.125v2.555zm-26.785 10.736a14.477 14.477 0 01-.921-1.329c-1.227-2.045-2.249-3.477-3.782-4.396 1.84-.715 2.862-2.146 2.862-3.986 0-2.762-2.146-4.498-5.623-4.498h-4.191v16.152h2.454v-7.055h1.021c1.228 0 2.25.41 4.396 3.682l2.249 3.373h2.761zm-7.668-7.157h-1.533v-5.11h1.533c2.352 0 3.271.92 3.271 2.452.103 1.33-.613 2.658-3.271 2.658z" fill="#F37021" clip-rule="evenodd" fill-rule="evenodd"/></svg>